<?xml version="1.0" encoding="utf-8"?>
<!-- Generator: Adobe Illustrator 24.0.1, SVG Export Plug-In . SVG Version: 6.00 Build 0)  -->
<svg version="1.1" id="Слой_1" xmlns="http://www.w3.org/2000/svg" xmlns:xlink="http://www.w3.org/1999/xlink" x="0px" y="0px"
	 viewBox="0 0 384 384" style="enable-background:new 0 0 384 384;" xml:space="preserve">
<style type="text/css">
	.st0{fill:#111015;}
	.st1{fill:#E33159;}
	.st2{fill:#F29241;}
	.st3{fill:#EDD929;}
	.st4{fill:#94C135;}
	.st5{fill:#10826E;}
	.st6{fill:#4D4796;}
	.st7{fill:#D35D9D;}
	.st8{fill:#54A753;}
	.st9{fill:#3161A3;}
	.st10{fill:#F3B72F;}
	.st11{fill:#EA583D;}
	.st12{fill:#854E98;}
	.st13{fill:#854E98;stroke:#854E98;}
	.st14{fill:#10826E;stroke:#10826E;}
	.st15{fill:#EDD929;stroke:#EDD929;}
	.st16{fill:#EA583D;stroke:#EA583D;}
	.st17{fill:#FFFFFF;stroke:#FFFFFF;}
	.st18{fill:none;stroke:#78C3AC;stroke-width:0.5;}
</style>
<rect class="st0" width="384" height="384"/>
<g>
	<rect y="226.3" class="st0" width="384" height="157.7"/>
	<g>
		<rect x="6" y="226.3" class="st1" width="41.1" height="157.7"/>
		<rect x="53.4" y="226.3" class="st2" width="41.1" height="157.7"/>
		<rect x="100.6" y="226.3" class="st3" width="41.1" height="157.7"/>
		<rect x="147.9" y="226.3" class="st4" width="41.1" height="157.7"/>
		<rect x="194.4" y="226.3" class="st5" width="41.1" height="157.7"/>
		<rect x="242.4" y="226.3" class="st6" width="41.1" height="157.7"/>
		<rect x="288.9" y="226.3" class="st7" width="41.1" height="157.7"/>
		<rect x="336.4" y="226.3" class="st1" width="41.1" height="157.7"/>
	</g>
	<g>
		<path class="st0" d="M203.6,324.1c-37.1,1.7-38.5-3.5-37.9-28.4c0-23.2,0-69.2,0-69.4h53C217.2,292.8,225.7,324.3,203.6,324.1z"/>
		<path class="st0" d="M251.5,324.1c-35.4,1-39.4-0.2-38.4-25c0-23,0-72.7,0-72.8H266C264.6,292.6,273,324.5,251.5,324.1z"/>
		<path class="st0" d="M110.5,324.1c-36,0.9-40.8,0.4-39.7-25.2c0-22.9,0-72.5,0-72.6h53.3C122.6,293.2,130.9,324.6,110.5,324.1z"/>
		<path class="st0" d="M63,324.1c-33.6,0.3-40.8,2.6-39.4-22.2c0-22.7,0-75.5,0-75.7h53.2C75.3,293.1,83.6,324.6,63,324.1z"/>
		<path class="st0" d="M298,324.1c-35.9,1.2-39.4-1.2-38.6-25.9c0-22.9,0-71.8,0-72H313C311.5,293,320,324.3,298,324.1z"/>
	</g>
	<g>
		<path class="st8" d="M204.2,318.2c-17.7-0.2-33.4,2.8-32.6-9.6c0-9.9,0-82.1,0-82.2h41.1C211,276.8,218.6,320.4,204.2,318.2z"/>
		<path class="st9" d="M251.6,318.2c-17.7-0.2-33.4,2.8-32.6-9.6c0-9.9,0-82.1,0-82.2h41.1C258.4,276.8,266,320.4,251.6,318.2z"/>
		<path class="st10" d="M109.5,318.2c-17.7-0.2-33.4,2.8-32.6-9.6c0-9.9,0-82.1,0-82.2h41.1C116.2,276.8,123.8,320.4,109.5,318.2z"
			/>
		<path class="st11" d="M62.3,318.2c-17.7-0.2-33.4,2.8-32.6-9.6c0-9.9,0-82.1,0-82.2h41.1C69,276.8,76.6,320.4,62.3,318.2z"/>
		<path class="st12" d="M298.3,318.2c-17.7-0.2-33.4,2.8-32.6-9.6c0-9.9,0-82.1,0-82.2h41.1C305.1,276.8,312.6,320.4,298.3,318.2z"
			/>
	</g>
</g>
<g>
	<g>
		<path class="st13" d="M73.9,93.6c3.3-0.5,7.3-0.9,11.6-0.9c7.8,0,13.4,1.8,17.1,5.3c3.8,3.4,6,8.3,6,15.2c0,6.9-2.1,12.5-6.1,16.4
			c-3.9,4-10.5,6.1-18.7,6.1c-3.9,0-7.1-0.2-9.9-0.5V93.6z M79.3,131c1.4,0.3,3.4,0.3,5.5,0.3c11.7,0,18-6.5,18-17.9
			c0.1-10-5.6-16.3-17.1-16.3c-2.8,0-5,0.3-6.4,0.6V131z"/>
		<path class="st13" d="M121.1,93.1v42.3h-5.5V93.1H121.1z"/>
		<path class="st13" d="M162.8,133.5c-2.4,0.9-7.3,2.3-13,2.3c-6.4,0-11.7-1.6-15.8-5.6c-3.6-3.5-5.9-9.2-5.9-15.7
			c0.1-12.6,8.7-21.8,22.9-21.8c4.9,0,8.7,1.1,10.5,1.9l-1.3,4.5c-2.3-1-5.1-1.8-9.3-1.8c-10.3,0-17,6.4-17,17
			c0,10.7,6.5,17.1,16.3,17.1c3.6,0,6-0.5,7.3-1.1v-12.6h-8.6v-4.4h13.9V133.5z"/>
		<path class="st13" d="M176.6,93.1v42.3h-5.5V93.1H176.6z"/>
		<path class="st13" d="M194.1,97.7h-12.9v-4.6h31.3v4.6h-12.9v37.6h-5.5V97.7z"/>
		<path class="st13" d="M217.2,93.6c2.8-0.6,6.7-0.9,10.5-0.9c5.8,0,9.6,1.1,12.2,3.4c2.1,1.9,3.3,4.8,3.3,8c0,5.6-3.5,9.3-8,10.8
			v0.2c3.3,1.1,5.2,4.1,6.2,8.5c1.4,5.9,2.4,10,3.3,11.6h-5.6c-0.7-1.2-1.6-4.8-2.8-10.1c-1.3-5.8-3.5-8-8.5-8.2h-5.1v18.3h-5.5
			V93.6z M222.7,112.9h5.6c5.8,0,9.5-3.2,9.5-8c0-5.5-4-7.8-9.7-7.9c-2.6,0-4.5,0.3-5.4,0.5V112.9z"/>
		<path class="st13" d="M287.3,113.8c0,14.5-8.8,22.3-19.6,22.3c-11.2,0-19-8.7-19-21.4c0-13.4,8.3-22.2,19.6-22.2
			C279.8,92.4,287.3,101.2,287.3,113.8z M254.5,114.5c0,9,4.9,17.1,13.5,17.1c8.7,0,13.5-8,13.5-17.6c0-8.4-4.4-17.2-13.5-17.2
			C259,96.8,254.5,105.2,254.5,114.5z"/>
		<path class="st13" d="M294.4,135.3V93.1h6l13.5,21.4c3.1,5,5.6,9.4,7.6,13.7l0.1-0.1c-0.5-5.6-0.6-10.8-0.6-17.4V93.1h5.1v42.3
			h-5.5l-13.4-21.4c-2.9-4.7-5.8-9.5-7.9-14.1l-0.2,0.1c0.3,5.3,0.4,10.4,0.4,17.4v18.1H294.4z"/>
	</g>
	<g>
		<path class="st14" d="M71.8,91.6c3.3-0.5,7.3-0.9,11.6-0.9c7.8,0,13.4,1.8,17.1,5.3c3.8,3.4,6,8.3,6,15.2c0,6.9-2.1,12.5-6.1,16.4
			c-3.9,4-10.5,6.1-18.7,6.1c-3.9,0-7.1-0.2-9.9-0.5V91.6z M77.3,129c1.4,0.3,3.4,0.3,5.5,0.3c11.7,0,18-6.5,18-17.9
			c0.1-10-5.6-16.3-17.1-16.3c-2.8,0-5,0.3-6.4,0.6V129z"/>
		<path class="st14" d="M119,91v42.3h-5.5V91H119z"/>
		<path class="st14" d="M160.7,131.4c-2.4,0.9-7.3,2.3-13,2.3c-6.4,0-11.7-1.6-15.8-5.6c-3.6-3.5-5.9-9.2-5.9-15.7
			c0.1-12.6,8.7-21.8,22.9-21.8c4.9,0,8.7,1.1,10.5,1.9l-1.3,4.5c-2.3-1-5.1-1.8-9.3-1.8c-10.3,0-17,6.4-17,17
			c0,10.7,6.5,17.1,16.3,17.1c3.6,0,6-0.5,7.3-1.1v-12.6h-8.6v-4.4h13.9V131.4z"/>
		<path class="st14" d="M174.5,91v42.3h-5.5V91H174.5z"/>
		<path class="st14" d="M192.1,95.7h-12.9V91h31.3v4.6h-12.9v37.6h-5.5V95.7z"/>
		<path class="st14" d="M215.2,91.6c2.8-0.6,6.7-0.9,10.5-0.9c5.8,0,9.6,1.1,12.2,3.4c2.1,1.9,3.3,4.8,3.3,8c0,5.6-3.5,9.3-8,10.8
			v0.2c3.3,1.1,5.2,4.1,6.2,8.5c1.4,5.9,2.4,10,3.3,11.6h-5.6c-0.7-1.2-1.6-4.8-2.8-10.1c-1.3-5.8-3.5-8-8.5-8.2h-5.1v18.3h-5.5
			V91.6z M220.7,110.9h5.6c5.8,0,9.5-3.2,9.5-8c0-5.5-4-7.8-9.7-7.9c-2.6,0-4.5,0.3-5.4,0.5V110.9z"/>
		<path class="st14" d="M285.2,111.7c0,14.5-8.8,22.3-19.6,22.3c-11.2,0-19-8.7-19-21.4c0-13.4,8.3-22.2,19.6-22.2
			C277.8,90.4,285.2,99.2,285.2,111.7z M252.5,112.4c0,9,4.9,17.1,13.5,17.1c8.7,0,13.5-8,13.5-17.6c0-8.4-4.4-17.2-13.5-17.2
			C257,94.8,252.5,103.1,252.5,112.4z"/>
		<path class="st14" d="M292.3,133.3V91h6l13.5,21.4c3.1,5,5.6,9.4,7.6,13.7l0.1-0.1c-0.5-5.6-0.6-10.8-0.6-17.4V91h5.1v42.3h-5.5
			l-13.4-21.4c-2.9-4.7-5.8-9.5-7.9-14.1l-0.2,0.1c0.3,5.3,0.4,10.4,0.4,17.4v18.1H292.3z"/>
	</g>
	<g>
		<path class="st15" d="M69.8,89.6c3.3-0.5,7.3-0.9,11.6-0.9c7.8,0,13.4,1.8,17.1,5.3c3.8,3.4,6,8.3,6,15.2c0,6.9-2.1,12.5-6.1,16.4
			c-3.9,4-10.5,6.1-18.7,6.1c-3.9,0-7.1-0.2-9.9-0.5V89.6z M75.2,126.9c1.4,0.3,3.4,0.3,5.5,0.3c11.7,0,18-6.5,18-17.9
			c0.1-10-5.6-16.3-17.1-16.3c-2.8,0-5,0.3-6.4,0.6V126.9z"/>
		<path class="st15" d="M117,89v42.3h-5.5V89H117z"/>
		<path class="st15" d="M158.7,129.4c-2.4,0.9-7.3,2.3-13,2.3c-6.4,0-11.7-1.6-15.8-5.6c-3.6-3.5-5.9-9.2-5.9-15.7
			c0.1-12.6,8.7-21.8,22.9-21.8c4.9,0,8.7,1.1,10.5,1.9l-1.3,4.5c-2.3-1-5.1-1.8-9.3-1.8c-10.3,0-17,6.4-17,17
			c0,10.7,6.5,17.1,16.3,17.1c3.6,0,6-0.5,7.3-1.1v-12.6h-8.6v-4.4h13.9V129.4z"/>
		<path class="st15" d="M172.5,89v42.3H167V89H172.5z"/>
		<path class="st15" d="M190,93.6h-12.9V89h31.3v4.6h-12.9v37.6H190V93.6z"/>
		<path class="st15" d="M213.2,89.6c2.8-0.6,6.7-0.9,10.5-0.9c5.8,0,9.6,1.1,12.2,3.4c2.1,1.9,3.3,4.8,3.3,8c0,5.6-3.5,9.3-8,10.8
			v0.2c3.3,1.1,5.2,4.1,6.2,8.5c1.4,5.9,2.4,10,3.3,11.6h-5.6c-0.7-1.2-1.6-4.8-2.8-10.1c-1.3-5.8-3.5-8-8.5-8.2h-5.1v18.3h-5.5
			V89.6z M218.6,108.8h5.6c5.8,0,9.5-3.2,9.5-8c0-5.5-4-7.8-9.7-7.9c-2.6,0-4.5,0.3-5.4,0.5V108.8z"/>
		<path class="st15" d="M283.2,109.7c0,14.5-8.8,22.3-19.6,22.3c-11.2,0-19-8.7-19-21.4c0-13.4,8.3-22.2,19.6-22.2
			C275.8,88.3,283.2,97.2,283.2,109.7z M250.4,110.4c0,9,4.9,17.1,13.5,17.1c8.7,0,13.5-8,13.5-17.6c0-8.4-4.4-17.2-13.5-17.2
			C254.9,92.8,250.4,101.1,250.4,110.4z"/>
		<path class="st15" d="M290.3,131.3V89h6l13.5,21.4c3.1,5,5.6,9.4,7.6,13.7l0.1-0.1c-0.5-5.6-0.6-10.8-0.6-17.4V89h5.1v42.3h-5.5
			l-13.4-21.4c-2.9-4.7-5.8-9.5-7.9-14.1l-0.2,0.1c0.3,5.3,0.4,10.4,0.4,17.4v18.1H290.3z"/>
	</g>
	<g>
		<path class="st16" d="M67.8,87.5c3.3-0.5,7.3-0.9,11.6-0.9c7.8,0,13.4,1.8,17.1,5.3c3.8,3.4,6,8.3,6,15.2c0,6.9-2.1,12.5-6.1,16.4
			c-3.9,4-10.5,6.1-18.7,6.1c-3.9,0-7.1-0.2-9.9-0.5V87.5z M73.2,124.9c1.4,0.3,3.4,0.3,5.5,0.3c11.7,0,18-6.5,18-17.9
			c0.1-10-5.6-16.3-17.1-16.3c-2.8,0-5,0.3-6.4,0.6V124.9z"/>
		<path class="st16" d="M115,87v42.3h-5.5V87H115z"/>
		<path class="st16" d="M156.7,127.4c-2.4,0.9-7.3,2.3-13,2.3c-6.4,0-11.7-1.6-15.8-5.6c-3.6-3.5-5.9-9.2-5.9-15.7
			c0.1-12.6,8.7-21.8,22.9-21.8c4.9,0,8.7,1.1,10.5,1.9l-1.3,4.5c-2.3-1-5.1-1.8-9.3-1.8c-10.3,0-17,6.4-17,17
			c0,10.7,6.5,17.1,16.3,17.1c3.6,0,6-0.5,7.3-1.1v-12.6h-8.6V107h13.9V127.4z"/>
		<path class="st16" d="M170.5,87v42.3H165V87H170.5z"/>
		<path class="st16" d="M188,91.6h-12.9V87h31.3v4.6h-12.9v37.6H188V91.6z"/>
		<path class="st16" d="M211.1,87.5c2.8-0.6,6.7-0.9,10.5-0.9c5.8,0,9.6,1.1,12.2,3.4c2.1,1.9,3.3,4.8,3.3,8c0,5.6-3.5,9.3-8,10.8
			v0.2c3.3,1.1,5.2,4.1,6.2,8.5c1.4,5.9,2.4,10,3.3,11.6H233c-0.7-1.2-1.6-4.8-2.8-10.1c-1.3-5.8-3.5-8-8.5-8.2h-5.1v18.3h-5.5V87.5
			z M216.6,106.8h5.6c5.8,0,9.5-3.2,9.5-8c0-5.5-4-7.8-9.7-7.9c-2.6,0-4.5,0.3-5.4,0.5V106.8z"/>
		<path class="st16" d="M281.2,107.7c0,14.5-8.8,22.3-19.6,22.3c-11.2,0-19-8.7-19-21.4c0-13.4,8.3-22.2,19.6-22.2
			C273.7,86.3,281.2,95.1,281.2,107.7z M248.4,108.4c0,9,4.9,17.1,13.5,17.1c8.7,0,13.5-8,13.5-17.6c0-8.4-4.4-17.2-13.5-17.2
			C252.9,90.7,248.4,99.1,248.4,108.4z"/>
		<path class="st16" d="M288.3,129.2V87h6l13.5,21.4c3.1,5,5.6,9.4,7.6,13.7l0.1-0.1c-0.5-5.6-0.6-10.8-0.6-17.4V87h5.1v42.3h-5.5
			l-13.4-21.4c-2.9-4.7-5.8-9.5-7.9-14.1l-0.2,0.1c0.3,5.3,0.4,10.4,0.4,17.4v18.1H288.3z"/>
	</g>
	<g>
		<path class="st17" d="M65.7,85.5C69,85,73,84.6,77.3,84.6c7.8,0,13.4,1.8,17.1,5.3c3.8,3.4,6,8.3,6,15.2c0,6.9-2.1,12.5-6.1,16.4
			c-3.9,4-10.5,6.1-18.7,6.1c-3.9,0-7.1-0.2-9.9-0.5V85.5z M71.2,122.9c1.4,0.3,3.4,0.3,5.5,0.3c11.7,0,18-6.5,18-17.9
			c0.1-10-5.6-16.3-17.1-16.3c-2.8,0-5,0.3-6.4,0.6V122.9z"/>
		<path class="st17" d="M112.9,84.9v42.3h-5.5V84.9H112.9z"/>
		<path class="st17" d="M154.6,125.3c-2.4,0.9-7.3,2.3-13,2.3c-6.4,0-11.7-1.6-15.8-5.6c-3.6-3.5-5.9-9.2-5.9-15.7
			c0.1-12.6,8.7-21.8,22.9-21.8c4.9,0,8.7,1.1,10.5,1.9l-1.3,4.5c-2.3-1-5.1-1.8-9.3-1.8c-10.3,0-17,6.4-17,17
			c0,10.7,6.5,17.1,16.3,17.1c3.6,0,6-0.5,7.3-1.1v-12.6h-8.6V105h13.9V125.3z"/>
		<path class="st17" d="M168.4,84.9v42.3H163V84.9H168.4z"/>
		<path class="st17" d="M186,89.6h-12.9v-4.6h31.3v4.6h-12.9v37.6H186V89.6z"/>
		<path class="st17" d="M209.1,85.5c2.8-0.6,6.7-0.9,10.5-0.9c5.8,0,9.6,1.1,12.2,3.4c2.1,1.9,3.3,4.8,3.3,8c0,5.6-3.5,9.3-8,10.8
			v0.2c3.3,1.1,5.2,4.1,6.2,8.5c1.4,5.9,2.4,10,3.3,11.6H231c-0.7-1.2-1.6-4.8-2.8-10.1c-1.3-5.8-3.5-8-8.5-8.2h-5.1v18.3h-5.5V85.5
			z M214.6,104.8h5.6c5.8,0,9.5-3.2,9.5-8c0-5.5-4-7.8-9.7-7.9c-2.6,0-4.5,0.3-5.4,0.5V104.8z"/>
		<path class="st17" d="M279.1,105.6c0,14.5-8.8,22.3-19.6,22.3c-11.2,0-19-8.7-19-21.4c0-13.4,8.3-22.2,19.6-22.2
			C271.7,84.3,279.1,93.1,279.1,105.6z M246.4,106.3c0,9,4.9,17.1,13.5,17.1c8.7,0,13.5-8,13.5-17.6c0-8.4-4.4-17.2-13.5-17.2
			C250.9,88.7,246.4,97,246.4,106.3z"/>
		<path class="st17" d="M286.2,127.2V84.9h6l13.5,21.4c3.1,5,5.6,9.4,7.6,13.7l0.1-0.1c-0.5-5.6-0.6-10.8-0.6-17.4V84.9h5.1v42.3
			h-5.5L299,105.8c-2.9-4.7-5.8-9.5-7.9-14.1l-0.2,0.1c0.3,5.3,0.4,10.4,0.4,17.4v18.1H286.2z"/>
	</g>
</g>
<g>
	<g>
		<path class="st13" d="M127.4,165c2.4-0.5,6.1-0.9,10-0.9c5.5,0,9,0.9,11.6,3.1c2.2,1.6,3.5,4.1,3.5,7.5c0,4.1-2.7,7.6-7.1,9.3v0.1
			c4,1,8.7,4.3,8.7,10.6c0,3.6-1.4,6.4-3.6,8.5c-2.9,2.7-7.7,3.9-14.6,3.9c-3.8,0-6.6-0.2-8.5-0.5V165z M132.9,182.3h5
			c5.8,0,9.2-3,9.2-7.1c0-5-3.8-6.9-9.3-6.9c-2.5,0-3.9,0.2-4.8,0.4V182.3z M132.9,202.6c1.1,0.2,2.6,0.3,4.6,0.3
			c5.6,0,10.8-2.1,10.8-8.2c0-5.8-5-8.2-10.9-8.2h-4.5V202.6z"/>
		<path class="st13" d="M168.2,193.4l-4.4,13.3h-5.6l14.4-42.3h6.6l14.4,42.3h-5.8l-4.5-13.3H168.2z M182.1,189.1L178,177
			c-0.9-2.8-1.6-5.3-2.2-7.7h-0.1c-0.6,2.5-1.3,5.1-2.1,7.6l-4.1,12.2H182.1z"/>
		<path class="st13" d="M199,200.1c2.4,1.5,6,2.8,9.8,2.8c5.6,0,8.8-2.9,8.8-7.2c0-4-2.3-6.2-8-8.4c-6.9-2.4-11.2-6-11.2-12
			c0-6.6,5.5-11.5,13.7-11.5c4.3,0,7.5,1,9.3,2.1l-1.5,4.5c-1.4-0.8-4.2-2-8-2c-5.8,0-8,3.4-8,6.3c0,4,2.6,5.9,8.4,8.2
			c7.1,2.8,10.8,6.2,10.8,12.4c0,6.5-4.8,12.2-14.8,12.2c-4.1,0-8.5-1.2-10.8-2.7L199,200.1z"/>
		<path class="st13" d="M236.1,164.4v42.3h-5.5v-42.3H236.1z"/>
		<path class="st13" d="M275.2,205.3c-2,1-6,2-11.2,2c-11.9,0-20.9-7.5-20.9-21.4c0-13.2,9-22.2,22.1-22.2c5.3,0,8.6,1.1,10,1.9
			l-1.3,4.5c-2.1-1-5-1.8-8.5-1.8c-9.9,0-16.5,6.3-16.5,17.4c0,10.3,6,17,16.2,17c3.3,0,6.7-0.7,8.9-1.8L275.2,205.3z"/>
	</g>
	<g>
		<path class="st14" d="M125.4,163c2.4-0.5,6.1-0.9,10-0.9c5.5,0,9,0.9,11.6,3.1c2.2,1.6,3.5,4.1,3.5,7.5c0,4.1-2.7,7.6-7.1,9.3v0.1
			c4,1,8.7,4.3,8.7,10.6c0,3.6-1.4,6.4-3.6,8.5c-2.9,2.7-7.7,3.9-14.6,3.9c-3.8,0-6.6-0.2-8.5-0.5V163z M130.9,180.3h5
			c5.8,0,9.2-3,9.2-7.1c0-5-3.8-6.9-9.3-6.9c-2.5,0-4,0.2-4.8,0.4V180.3z M130.9,200.5c1.1,0.2,2.6,0.3,4.6,0.3
			c5.6,0,10.8-2.1,10.8-8.2c0-5.8-5-8.2-10.9-8.2h-4.5V200.5z"/>
		<path class="st14" d="M166.2,191.4l-4.4,13.3h-5.6l14.4-42.3h6.6l14.4,42.3h-5.8l-4.5-13.3H166.2z M180.1,187.1l-4.1-12.2
			c-0.9-2.8-1.6-5.3-2.2-7.7h-0.1c-0.6,2.5-1.3,5.1-2.1,7.6l-4.1,12.2H180.1z"/>
		<path class="st14" d="M197,198c2.4,1.5,6,2.8,9.8,2.8c5.6,0,8.8-2.9,8.8-7.2c0-4-2.3-6.2-8-8.4c-6.9-2.4-11.2-6-11.2-12
			c0-6.6,5.5-11.5,13.7-11.5c4.3,0,7.5,1,9.3,2.1l-1.5,4.5c-1.4-0.8-4.2-2-8-2c-5.8,0-8,3.4-8,6.3c0,4,2.6,5.9,8.4,8.2
			c7.1,2.8,10.8,6.2,10.8,12.4c0,6.5-4.8,12.2-14.8,12.2c-4.1,0-8.5-1.2-10.8-2.7L197,198z"/>
		<path class="st14" d="M234.1,162.4v42.3h-5.5v-42.3H234.1z"/>
		<path class="st14" d="M273.2,203.3c-2,1-6,2-11.2,2c-11.9,0-20.9-7.5-20.9-21.4c0-13.2,9-22.2,22.1-22.2c5.3,0,8.6,1.1,10,1.9
			l-1.3,4.5c-2.1-1-5-1.8-8.5-1.8c-9.9,0-16.5,6.3-16.5,17.4c0,10.3,6,17,16.2,17c3.3,0,6.7-0.7,8.9-1.8L273.2,203.3z"/>
	</g>
	<g>
		<path class="st15" d="M123.4,160.9c2.4-0.5,6.1-0.9,10-0.9c5.5,0,9,0.9,11.6,3.1c2.2,1.6,3.5,4.1,3.5,7.5c0,4.1-2.7,7.6-7.1,9.3
			v0.1c4,1,8.7,4.3,8.7,10.6c0,3.6-1.4,6.4-3.6,8.5c-2.9,2.7-7.7,3.9-14.6,3.9c-3.8,0-6.6-0.2-8.5-0.5V160.9z M128.8,178.2h5
			c5.8,0,9.2-3,9.2-7.1c0-5-3.8-6.9-9.3-6.9c-2.5,0-4,0.2-4.8,0.4V178.2z M128.8,198.5c1.1,0.2,2.6,0.3,4.6,0.3
			c5.6,0,10.8-2.1,10.8-8.2c0-5.8-5-8.2-10.9-8.2h-4.5V198.5z"/>
		<path class="st15" d="M164.2,189.3l-4.4,13.3h-5.6l14.4-42.3h6.6l14.4,42.3h-5.8l-4.5-13.3H164.2z M178,185.1l-4.1-12.2
			c-0.9-2.8-1.6-5.3-2.2-7.7h-0.1c-0.6,2.5-1.3,5.1-2.1,7.6l-4.1,12.2H178z"/>
		<path class="st15" d="M195,196c2.4,1.5,6,2.8,9.8,2.8c5.6,0,8.8-2.9,8.8-7.2c0-4-2.3-6.2-8-8.4c-6.9-2.4-11.2-6-11.2-12
			c0-6.6,5.5-11.5,13.7-11.5c4.3,0,7.5,1,9.3,2.1l-1.5,4.5c-1.4-0.8-4.2-2-8-2c-5.8,0-8,3.4-8,6.3c0,4,2.6,5.9,8.4,8.2
			c7.1,2.8,10.8,6.2,10.8,12.4c0,6.5-4.8,12.2-14.8,12.2c-4.1,0-8.5-1.2-10.8-2.7L195,196z"/>
		<path class="st15" d="M232.1,160.4v42.3h-5.5v-42.3H232.1z"/>
		<path class="st15" d="M271.1,201.3c-2,1-6,2-11.2,2c-11.9,0-20.9-7.5-20.9-21.4c0-13.2,9-22.2,22.1-22.2c5.3,0,8.6,1.1,10,1.9
			l-1.3,4.5c-2.1-1-5-1.8-8.5-1.8c-9.9,0-16.5,6.3-16.5,17.4c0,10.3,6,17,16.2,17c3.3,0,6.7-0.7,8.9-1.8L271.1,201.3z"/>
	</g>
	<g>
		<path class="st16" d="M121.3,158.9c2.4-0.5,6.1-0.9,10-0.9c5.5,0,9,0.9,11.6,3.1c2.2,1.6,3.5,4.1,3.5,7.5c0,4.1-2.7,7.6-7.1,9.3
			v0.1c4,1,8.7,4.3,8.7,10.6c0,3.6-1.4,6.4-3.6,8.5c-2.9,2.7-7.7,3.9-14.6,3.9c-3.8,0-6.6-0.2-8.5-0.5V158.9z M126.8,176.2h5
			c5.8,0,9.2-3,9.2-7.1c0-5-3.8-6.9-9.3-6.9c-2.5,0-4,0.2-4.8,0.4V176.2z M126.8,196.5c1.1,0.2,2.6,0.3,4.6,0.3
			c5.6,0,10.8-2.1,10.8-8.2c0-5.8-5-8.2-10.9-8.2h-4.5V196.5z"/>
		<path class="st16" d="M162.1,187.3l-4.4,13.3h-5.6l14.4-42.3h6.6l14.4,42.3h-5.8l-4.5-13.3H162.1z M176,183l-4.1-12.2
			c-0.9-2.8-1.6-5.3-2.2-7.7h-0.1c-0.6,2.5-1.3,5.1-2.1,7.6l-4.1,12.2H176z"/>
		<path class="st16" d="M192.9,194c2.4,1.5,6,2.8,9.8,2.8c5.6,0,8.8-2.9,8.8-7.2c0-4-2.3-6.2-8-8.4c-6.9-2.4-11.2-6-11.2-12
			c0-6.6,5.5-11.5,13.7-11.5c4.3,0,7.5,1,9.3,2.1l-1.5,4.5c-1.4-0.8-4.2-2-8-2c-5.8,0-8,3.4-8,6.3c0,4,2.6,5.9,8.4,8.2
			c7.1,2.8,10.8,6.2,10.8,12.4c0,6.5-4.8,12.2-14.8,12.2c-4.1,0-8.5-1.2-10.8-2.7L192.9,194z"/>
		<path class="st16" d="M230,158.3v42.3h-5.5v-42.3H230z"/>
		<path class="st16" d="M269.1,199.2c-2,1-6,2-11.2,2c-11.9,0-20.9-7.5-20.9-21.4c0-13.2,9-22.2,22.1-22.2c5.3,0,8.6,1.1,10,1.9
			l-1.3,4.5c-2.1-1-5-1.8-8.5-1.8c-9.9,0-16.5,6.3-16.5,17.4c0,10.3,6,17,16.2,17c3.3,0,6.7-0.7,8.9-1.8L269.1,199.2z"/>
	</g>
	<g>
		<path class="st17" d="M119.3,156.9c2.4-0.5,6.1-0.9,10-0.9c5.5,0,9,0.9,11.6,3.1c2.2,1.6,3.5,4.1,3.5,7.5c0,4.1-2.7,7.6-7.1,9.3
			v0.1c4,1,8.7,4.3,8.7,10.6c0,3.6-1.4,6.4-3.6,8.5c-2.9,2.7-7.7,3.9-14.6,3.9c-3.8,0-6.6-0.2-8.5-0.5V156.9z M124.8,174.2h5
			c5.8,0,9.2-3,9.2-7.1c0-5-3.8-6.9-9.3-6.9c-2.5,0-4,0.2-4.8,0.4V174.2z M124.8,194.4c1.1,0.2,2.6,0.3,4.6,0.3
			c5.6,0,10.8-2.1,10.8-8.2c0-5.8-5-8.2-10.9-8.2h-4.5V194.4z"/>
		<path class="st17" d="M160.1,185.3l-4.4,13.3h-5.6l14.4-42.3h6.6l14.4,42.3h-5.8l-4.5-13.3H160.1z M174,181l-4.1-12.2
			c-0.9-2.8-1.6-5.3-2.2-7.7h-0.1c-0.6,2.5-1.3,5.1-2.1,7.6l-4.1,12.2H174z"/>
		<path class="st17" d="M190.9,191.9c2.4,1.5,6,2.8,9.8,2.8c5.6,0,8.8-2.9,8.8-7.2c0-4-2.3-6.2-8-8.4c-6.9-2.4-11.2-6-11.2-12
			c0-6.6,5.5-11.5,13.7-11.5c4.3,0,7.5,1,9.3,2.1l-1.5,4.5c-1.4-0.8-4.2-2-8-2c-5.8,0-8,3.4-8,6.3c0,4,2.6,5.9,8.4,8.2
			c7.1,2.8,10.8,6.2,10.8,12.4c0,6.5-4.8,12.2-14.8,12.2c-4.1,0-8.5-1.2-10.8-2.7L190.9,191.9z"/>
		<path class="st17" d="M228,156.3v42.3h-5.5v-42.3H228z"/>
		<path class="st17" d="M267.1,197.2c-2,1-6,2-11.2,2c-11.9,0-20.9-7.5-20.9-21.4c0-13.2,9-22.2,22.1-22.2c5.3,0,8.6,1.1,10,1.9
			l-1.3,4.5c-2.1-1-5-1.8-8.5-1.8c-9.9,0-16.5,6.3-16.5,17.4c0,10.3,6,17,16.2,17c3.3,0,6.7-0.7,8.9-1.8L267.1,197.2z"/>
	</g>
</g>
<rect class="st18" width="384" height="384"/>
</svg>
