<?xml version="1.0" encoding="utf-8"?>
<!-- Generator: Adobe Illustrator 24.0.1, SVG Export Plug-In . SVG Version: 6.00 Build 0)  -->
<svg version="1.1" id="Icon" xmlns="http://www.w3.org/2000/svg" xmlns:xlink="http://www.w3.org/1999/xlink" x="0px" y="0px"
	 viewBox="0 0 384 384" style="enable-background:new 0 0 384 384;" xml:space="preserve">
<style type="text/css">
	.st0{fill:#111115;}
	.st1{fill:#9F87BE;}
	.st2{fill:#E33159;}
	.st3{fill:#F39441;}
	.st4{fill:#EDD92A;}
	.st5{fill:#95C235;}
	.st6{fill:#10826E;}
	.st7{fill:#4D4797;}
	.st8{fill:#D35E9F;}
	.st9{fill:#54A853;}
	.st10{fill:#3162A4;}
	.st11{fill:#F3B72F;}
	.st12{fill:#EB583D;}
	.st13{fill:#874E99;}
	.st14{fill:#874E99;stroke:#874E99;}
	.st15{fill:#10826E;stroke:#10826E;}
	.st16{fill:#EDD92A;stroke:#EDD92A;}
	.st17{fill:#EB583D;stroke:#EB583D;}
	.st18{fill:#FFFFFF;stroke:#FFFFFF;}
	.st19{fill:none;stroke:#52BBB5;stroke-width:2;stroke-miterlimit:10;}
	.st20{fill:none;}
</style>
<rect class="st0" width="384" height="384"/>
<g>
	<g>
		<path class="st1" d="M384,173.7v20.8H0v-40.8c3.9-7.4,8.3-13.4,13.3-13.4c13.2,0,15.8,24.8,25.4,24.5c9.5-0.2,9-8.4,20.3-8.5
			c11.2-0.1,17.2,25.6,26.9,25.6c8.3,0,16.9-41.7,30.1-41.7c13.2,0,15.8,24.8,25.4,24.5c9.5-0.2,9-8.4,20.3-8.5
			c11.2-0.1,17.2,25.6,26.9,25.6c8.3,0,16.9-41.7,30.1-41.7c13.2,0,15.9,24.8,25.4,24.5c9.5-0.2,9.1-8.4,20.3-8.5
			c11.2-0.1,17.1,25.6,26.9,25.6c8.3,0,16.9-41.7,30.1-41.7c13.2,0,15.8,24.8,25.4,24.5c9.5-0.2,9-8.4,20.3-8.5
			C374,156.3,379,166.2,384,173.7z"/>
	</g>
</g>
<g>
	<rect y="190.6" class="st0" width="384" height="193.4"/>
	<g>
		<rect x="5.5" y="190.6" class="st2" width="41.1" height="193.4"/>
		<rect x="52.9" y="190.6" class="st3" width="41.1" height="193.4"/>
		<rect x="100.1" y="190.6" class="st4" width="41.1" height="193.4"/>
		<rect x="147.4" y="190.6" class="st5" width="41.1" height="193.4"/>
		<rect x="193.9" y="190.6" class="st6" width="41.1" height="193.4"/>
		<rect x="241.9" y="190.6" class="st7" width="41.1" height="193.4"/>
		<rect x="288.4" y="190.6" class="st8" width="41.1" height="193.4"/>
		<rect x="335.9" y="190.6" class="st2" width="41.1" height="193.4"/>
	</g>
	<g>
		<path class="st0" d="M203.1,322.8h-22.3c-8.6,0-15.6-7-15.6-15.6V190.6h53v117.1C218.2,316,211.4,322.8,203.1,322.8z"/>
		<path class="st0" d="M251,322.8h-24.7c-7.6,0-13.7-6.1-13.7-13.7V190.6h52.9v117.6C265.5,316.3,259,322.8,251,322.8z"/>
		<path class="st0" d="M110,322.8H84.2c-7.7,0-13.9-6.2-13.9-13.9V190.6h53.3v118.5C123.6,316.7,117.5,322.8,110,322.8z"/>
		<path class="st0" d="M62.5,322.8H35.3c-6.7,0-12.1-5.4-12.1-12.1v-120h53.2V309C76.3,316.6,70.2,322.8,62.5,322.8z"/>
		<path class="st0" d="M297.5,322.8h-24.1c-8,0-14.4-6.4-14.4-14.4V190.6h53.5v117.2C312.5,316.1,305.8,322.8,297.5,322.8z"/>
	</g>
	<g>
		<path class="st9" d="M203.7,316.8h-24.1c-4.7,0-8.5-3.8-8.5-8.5V190.6h41.1v117.7C212.2,313,208.4,316.8,203.7,316.8z"/>
		<path class="st10" d="M251.1,316.8H227c-4.7,0-8.5-3.8-8.5-8.5V190.6h41.1v117.7C259.6,313,255.8,316.8,251.1,316.8z"/>
		<path class="st11" d="M109,316.8H84.8c-4.7,0-8.5-3.8-8.5-8.5V190.6h41.1v117.7C117.4,313,113.6,316.8,109,316.8z"/>
		<path class="st12" d="M61.8,316.8H37.6c-4.7,0-8.5-3.8-8.5-8.5V190.6h41.1v117.7C70.3,313,66.5,316.8,61.8,316.8z"/>
		<path class="st13" d="M297.8,316.8h-24.1c-4.7,0-8.5-3.8-8.5-8.5V190.6h41.1v117.7C306.3,313,302.5,316.8,297.8,316.8z"/>
	</g>
</g>
<g>
	<g>
		<path class="st14" d="M73.4,88.2c3.3-0.5,7.3-0.9,11.6-0.9c7.8,0,13.4,1.8,17.1,5.3c3.8,3.4,6,8.3,6,15.2c0,6.9-2.1,12.5-6.1,16.4
			c-3.9,4-10.5,6.1-18.7,6.1c-3.9,0-7.1-0.2-9.9-0.5V88.2z M78.8,125.6c1.4,0.3,3.4,0.3,5.5,0.3c11.7,0,18-6.5,18-17.9
			c0.1-10-5.6-16.3-17.1-16.3c-2.8,0-5,0.3-6.4,0.6V125.6z"/>
		<path class="st14" d="M120.6,87.6v42.3h-5.5V87.6H120.6z"/>
		<path class="st14" d="M162.3,128c-2.4,0.9-7.3,2.3-13,2.3c-6.4,0-11.7-1.6-15.8-5.6c-3.6-3.5-5.9-9.2-5.9-15.7
			c0.1-12.6,8.7-21.8,22.9-21.8c4.9,0,8.7,1.1,10.5,1.9l-1.3,4.5c-2.3-1-5.1-1.8-9.3-1.8c-10.3,0-17,6.4-17,17
			c0,10.7,6.5,17.1,16.3,17.1c3.6,0,6-0.5,7.3-1.1v-12.6h-8.6v-4.4h13.9V128z"/>
		<path class="st14" d="M176.1,87.6v42.3h-5.5V87.6H176.1z"/>
		<path class="st14" d="M193.6,92.3h-12.9v-4.6H212v4.6h-12.9v37.6h-5.5V92.3z"/>
		<path class="st14" d="M216.7,88.2c2.8-0.6,6.7-0.9,10.5-0.9c5.8,0,9.6,1.1,12.2,3.4c2.1,1.9,3.3,4.8,3.3,8c0,5.6-3.5,9.3-8,10.8
			v0.2c3.3,1.1,5.2,4.1,6.2,8.5c1.4,5.9,2.4,10,3.3,11.6h-5.6c-0.7-1.2-1.6-4.8-2.8-10.1c-1.3-5.8-3.5-8-8.5-8.2h-5.1v18.3h-5.5
			V88.2z M222.2,107.5h5.6c5.8,0,9.5-3.2,9.5-8c0-5.5-4-7.8-9.7-7.9c-2.6,0-4.5,0.3-5.4,0.5V107.5z"/>
		<path class="st14" d="M286.8,108.3c0,14.5-8.8,22.3-19.6,22.3c-11.2,0-19-8.7-19-21.4c0-13.4,8.3-22.2,19.6-22.2
			C279.3,86.9,286.8,95.8,286.8,108.3z M254,109c0,9,4.9,17.1,13.5,17.1c8.7,0,13.5-8,13.5-17.6c0-8.4-4.4-17.2-13.5-17.2
			C258.5,91.4,254,99.7,254,109z"/>
		<path class="st14" d="M293.9,129.9V87.6h6l13.5,21.4c3.1,5,5.6,9.4,7.6,13.7l0.1-0.1c-0.5-5.6-0.6-10.8-0.6-17.4V87.6h5.1v42.3
			h-5.5l-13.4-21.4c-2.9-4.7-5.8-9.5-7.9-14.1l-0.2,0.1c0.3,5.3,0.4,10.4,0.4,17.4v18.1H293.9z"/>
	</g>
	<g>
		<path class="st15" d="M71.3,86.2c3.3-0.5,7.3-0.9,11.6-0.9c7.8,0,13.4,1.8,17.1,5.3c3.8,3.4,6,8.3,6,15.2c0,6.9-2.1,12.5-6.1,16.4
			c-3.9,4-10.5,6.1-18.7,6.1c-3.9,0-7.1-0.2-9.9-0.5V86.2z M76.8,123.5c1.4,0.3,3.4,0.3,5.5,0.3c11.7,0,18-6.5,18-17.9
			c0.1-10-5.6-16.3-17.1-16.3c-2.8,0-5,0.3-6.4,0.6V123.5z"/>
		<path class="st15" d="M118.5,85.6v42.3h-5.5V85.6H118.5z"/>
		<path class="st15" d="M160.2,126c-2.4,0.9-7.3,2.3-13,2.3c-6.4,0-11.7-1.6-15.8-5.6c-3.6-3.5-5.9-9.2-5.9-15.7
			c0.1-12.6,8.7-21.8,22.9-21.8c4.9,0,8.7,1.1,10.5,1.9l-1.3,4.5c-2.3-1-5.1-1.8-9.3-1.8c-10.3,0-17,6.4-17,17
			c0,10.7,6.5,17.1,16.3,17.1c3.6,0,6-0.5,7.3-1.1v-12.6h-8.6v-4.4h13.9V126z"/>
		<path class="st15" d="M174,85.6v42.3h-5.5V85.6H174z"/>
		<path class="st15" d="M191.6,90.2h-12.9v-4.6H210v4.6h-12.9v37.6h-5.5V90.2z"/>
		<path class="st15" d="M214.7,86.2c2.8-0.6,6.7-0.9,10.5-0.9c5.8,0,9.6,1.1,12.2,3.4c2.1,1.9,3.3,4.8,3.3,8c0,5.6-3.5,9.3-8,10.8
			v0.2c3.3,1.1,5.2,4.1,6.2,8.5c1.4,5.9,2.4,10,3.3,11.6h-5.6c-0.7-1.2-1.6-4.8-2.8-10.1c-1.3-5.8-3.5-8-8.5-8.2h-5.1v18.3h-5.5
			V86.2z M220.2,105.4h5.6c5.8,0,9.5-3.2,9.5-8c0-5.5-4-7.8-9.7-7.9c-2.6,0-4.5,0.3-5.4,0.5V105.4z"/>
		<path class="st15" d="M284.7,106.3c0,14.5-8.8,22.3-19.6,22.3c-11.2,0-19-8.7-19-21.4c0-13.4,8.3-22.2,19.6-22.2
			C277.3,84.9,284.7,93.8,284.7,106.3z M252,107c0,9,4.9,17.1,13.5,17.1c8.7,0,13.5-8,13.5-17.6c0-8.4-4.4-17.2-13.5-17.2
			C256.5,89.4,252,97.7,252,107z"/>
		<path class="st15" d="M291.8,127.9V85.6h6l13.5,21.4c3.1,5,5.6,9.4,7.6,13.7l0.1-0.1c-0.5-5.6-0.6-10.8-0.6-17.4V85.6h5.1v42.3
			H318l-13.4-21.4c-2.9-4.7-5.8-9.5-7.9-14.1l-0.2,0.1c0.3,5.3,0.4,10.4,0.4,17.4v18.1H291.8z"/>
	</g>
	<g>
		<path class="st16" d="M69.3,84.1c3.3-0.5,7.3-0.9,11.6-0.9c7.8,0,13.4,1.8,17.1,5.3c3.8,3.4,6,8.3,6,15.2c0,6.9-2.1,12.5-6.1,16.4
			c-3.9,4-10.5,6.1-18.7,6.1c-3.9,0-7.1-0.2-9.9-0.5V84.1z M74.7,121.5c1.4,0.3,3.4,0.3,5.5,0.3c11.7,0,18-6.5,18-17.9
			c0.1-10-5.6-16.3-17.1-16.3c-2.8,0-5,0.3-6.4,0.6V121.5z"/>
		<path class="st16" d="M116.5,83.6v42.3H111V83.6H116.5z"/>
		<path class="st16" d="M158.2,124c-2.4,0.9-7.3,2.3-13,2.3c-6.4,0-11.7-1.6-15.8-5.6c-3.6-3.5-5.9-9.2-5.9-15.7
			c0.1-12.6,8.7-21.8,22.9-21.8c4.9,0,8.7,1.1,10.5,1.9l-1.3,4.5c-2.3-1-5.1-1.8-9.3-1.8c-10.3,0-17,6.4-17,17
			c0,10.7,6.5,17.1,16.3,17.1c3.6,0,6-0.5,7.3-1.1V108h-8.6v-4.4h13.9V124z"/>
		<path class="st16" d="M172,83.6v42.3h-5.5V83.6H172z"/>
		<path class="st16" d="M189.5,88.2h-12.9v-4.6H208v4.6h-12.9v37.6h-5.5V88.2z"/>
		<path class="st16" d="M212.7,84.1c2.8-0.6,6.7-0.9,10.5-0.9c5.8,0,9.6,1.1,12.2,3.4c2.1,1.9,3.3,4.8,3.3,8c0,5.6-3.5,9.3-8,10.8
			v0.2c3.3,1.1,5.2,4.1,6.2,8.5c1.4,5.9,2.4,10,3.3,11.6h-5.6c-0.7-1.2-1.6-4.8-2.8-10.1c-1.3-5.8-3.5-8-8.5-8.2h-5.1v18.3h-5.5
			V84.1z M218.1,103.4h5.6c5.8,0,9.5-3.2,9.5-8c0-5.5-4-7.8-9.7-7.9c-2.6,0-4.5,0.3-5.4,0.5V103.4z"/>
		<path class="st16" d="M282.7,104.3c0,14.5-8.8,22.3-19.6,22.3c-11.2,0-19-8.7-19-21.4c0-13.4,8.3-22.2,19.6-22.2
			C275.3,82.9,282.7,91.7,282.7,104.3z M249.9,105c0,9,4.9,17.1,13.5,17.1c8.7,0,13.5-8,13.5-17.6c0-8.4-4.4-17.2-13.5-17.2
			C254.4,87.3,249.9,95.7,249.9,105z"/>
		<path class="st16" d="M289.8,125.8V83.6h6l13.5,21.4c3.1,5,5.6,9.4,7.6,13.7l0.1-0.1c-0.5-5.6-0.6-10.8-0.6-17.4V83.6h5.1v42.3
			H316l-13.4-21.4c-2.9-4.7-5.8-9.5-7.9-14.1l-0.2,0.1c0.3,5.3,0.4,10.4,0.4,17.4v18.1H289.8z"/>
	</g>
	<g>
		<path class="st17" d="M67.3,82.1c3.3-0.5,7.3-0.9,11.6-0.9c7.8,0,13.4,1.8,17.1,5.3c3.8,3.4,6,8.3,6,15.2c0,6.9-2.1,12.5-6.1,16.4
			c-3.9,4-10.5,6.1-18.7,6.1c-3.9,0-7.1-0.2-9.9-0.5V82.1z M72.7,119.5c1.4,0.3,3.4,0.3,5.5,0.3c11.7,0,18-6.5,18-17.9
			c0.1-10-5.6-16.3-17.1-16.3c-2.8,0-5,0.3-6.4,0.6V119.5z"/>
		<path class="st17" d="M114.5,81.5v42.3H109V81.5H114.5z"/>
		<path class="st17" d="M156.2,121.9c-2.4,0.9-7.3,2.3-13,2.3c-6.4,0-11.7-1.6-15.8-5.6c-3.6-3.5-5.9-9.2-5.9-15.7
			c0.1-12.6,8.7-21.8,22.9-21.8c4.9,0,8.7,1.1,10.5,1.9l-1.3,4.5c-2.3-1-5.1-1.8-9.3-1.8c-10.3,0-17,6.4-17,17
			c0,10.7,6.5,17.1,16.3,17.1c3.6,0,6-0.5,7.3-1.1V106h-8.6v-4.4h13.9V121.9z"/>
		<path class="st17" d="M170,81.5v42.3h-5.5V81.5H170z"/>
		<path class="st17" d="M187.5,86.2h-12.9v-4.6h31.3v4.6H193v37.6h-5.5V86.2z"/>
		<path class="st17" d="M210.6,82.1c2.8-0.6,6.7-0.9,10.5-0.9c5.8,0,9.6,1.1,12.2,3.4c2.1,1.9,3.3,4.8,3.3,8c0,5.6-3.5,9.3-8,10.8
			v0.2c3.3,1.1,5.2,4.1,6.2,8.5c1.4,5.9,2.4,10,3.3,11.6h-5.6c-0.7-1.2-1.6-4.8-2.8-10.1c-1.3-5.8-3.5-8-8.5-8.2h-5.1v18.3h-5.5
			V82.1z M216.1,101.4h5.6c5.8,0,9.5-3.2,9.5-8c0-5.5-4-7.8-9.7-7.9c-2.6,0-4.5,0.3-5.4,0.5V101.4z"/>
		<path class="st17" d="M280.7,102.2c0,14.5-8.8,22.3-19.6,22.3c-11.2,0-19-8.7-19-21.4c0-13.4,8.3-22.2,19.6-22.2
			C273.2,80.8,280.7,89.7,280.7,102.2z M247.9,102.9c0,9,4.9,17.1,13.5,17.1c8.7,0,13.5-8,13.5-17.6c0-8.4-4.4-17.2-13.5-17.2
			C252.4,85.3,247.9,93.6,247.9,102.9z"/>
		<path class="st17" d="M287.8,123.8V81.5h6l13.5,21.4c3.1,5,5.6,9.4,7.6,13.7l0.1-0.1c-0.5-5.6-0.6-10.8-0.6-17.4V81.5h5.1v42.3
			H314l-13.4-21.4c-2.9-4.7-5.8-9.5-7.9-14.1l-0.2,0.1c0.3,5.3,0.4,10.4,0.4,17.4v18.1H287.8z"/>
	</g>
	<g>
		<path class="st18" d="M65.2,80.1c3.3-0.5,7.3-0.9,11.6-0.9c7.8,0,13.4,1.8,17.1,5.3c3.8,3.4,6,8.3,6,15.2c0,6.9-2.1,12.5-6.1,16.4
			c-3.9,4-10.5,6.1-18.7,6.1c-3.9,0-7.1-0.2-9.9-0.5V80.1z M70.7,117.4c1.4,0.3,3.4,0.3,5.5,0.3c11.7,0,18-6.5,18-17.9
			c0.1-10-5.6-16.3-17.1-16.3c-2.8,0-5,0.3-6.4,0.6V117.4z"/>
		<path class="st18" d="M112.4,79.5v42.3H107V79.5H112.4z"/>
		<path class="st18" d="M154.1,119.9c-2.4,0.9-7.3,2.3-13,2.3c-6.4,0-11.7-1.6-15.8-5.6c-3.6-3.5-5.9-9.2-5.9-15.7
			c0.1-12.6,8.7-21.8,22.9-21.8c4.9,0,8.7,1.1,10.5,1.9l-1.3,4.5c-2.3-1-5.1-1.8-9.3-1.8c-10.3,0-17,6.4-17,17
			c0,10.7,6.5,17.1,16.3,17.1c3.6,0,6-0.5,7.3-1.1V104h-8.6v-4.4h13.9V119.9z"/>
		<path class="st18" d="M167.9,79.5v42.3h-5.5V79.5H167.9z"/>
		<path class="st18" d="M185.5,84.1h-12.9v-4.6h31.3v4.6H191v37.6h-5.5V84.1z"/>
		<path class="st18" d="M208.6,80.1c2.8-0.6,6.7-0.9,10.5-0.9c5.8,0,9.6,1.1,12.2,3.4c2.1,1.9,3.3,4.8,3.3,8c0,5.6-3.5,9.3-8,10.8
			v0.2c3.3,1.1,5.2,4.1,6.2,8.5c1.4,5.9,2.4,10,3.3,11.6h-5.6c-0.7-1.2-1.6-4.8-2.8-10.1c-1.3-5.8-3.5-8-8.5-8.2h-5.1v18.3h-5.5
			V80.1z M214.1,99.3h5.6c5.8,0,9.5-3.2,9.5-8c0-5.5-4-7.8-9.7-7.9c-2.6,0-4.5,0.3-5.4,0.5V99.3z"/>
		<path class="st18" d="M278.6,100.2c0,14.5-8.8,22.3-19.6,22.3c-11.2,0-19-8.7-19-21.4c0-13.4,8.3-22.2,19.6-22.2
			C271.2,78.8,278.6,87.7,278.6,100.2z M245.9,100.9c0,9,4.9,17.1,13.5,17.1c8.7,0,13.5-8,13.5-17.6c0-8.4-4.4-17.2-13.5-17.2
			C250.4,83.3,245.9,91.6,245.9,100.9z"/>
		<path class="st18" d="M285.7,121.8V79.5h6l13.5,21.4c3.1,5,5.6,9.4,7.6,13.7l0.1-0.1c-0.5-5.6-0.6-10.8-0.6-17.4V79.5h5.1v42.3
			h-5.5l-13.4-21.4c-2.9-4.7-5.8-9.5-7.9-14.1l-0.2,0.1c0.3,5.3,0.4,10.4,0.4,17.4v18.1H285.7z"/>
	</g>
</g>
<g>
	<g>
		<path class="st19" d="M0,153.8c3.9-7.4,8.3-13.4,13.3-13.4c13.2,0,15.9,24.8,25.4,24.5c9.5-0.2,9-8.4,20.3-8.5S76.1,182,85.8,182
			c8.3,0,16.9-41.7,30.1-41.7c13.2,0,15.8,24.8,25.4,24.5c9.5-0.2,9.1-8.4,20.3-8.5c11.2-0.1,17.1,25.6,26.9,25.6
			c8.3,0,16.9-41.7,30.1-41.7c13.2,0,15.8,24.8,25.4,24.5c9.5-0.2,9.1-8.4,20.3-8.5c11.2-0.1,17.2,25.6,26.9,25.6
			c8.3,0,16.9-41.7,30.1-41.7c13.2,0,15.8,24.8,25.4,24.5c9.5-0.2,9.1-8.4,20.3-8.5c7-0.1,11.9,9.8,17,17.3"/>
	</g>
</g>
<rect class="st20" width="384" height="384"/>
</svg>
